G75*
G70*
%OFA0B0*%
%FSLAX24Y24*%
%IPPOS*%
%LPD*%
%AMOC8*
5,1,8,0,0,1.08239X$1,22.5*
%
%ADD10R,0.0580X0.0300*%
%ADD11R,0.0300X0.0580*%
%ADD12C,0.0600*%
%ADD13R,0.0513X0.0474*%
%ADD14C,0.0680*%
%ADD15OC8,0.0680*%
%ADD16R,0.0592X0.0710*%
%ADD17OC8,0.0710*%
%ADD18C,0.0710*%
%ADD19R,0.0552X0.0552*%
%ADD20R,0.0710X0.0592*%
%ADD21R,0.0630X0.0217*%
%ADD22R,0.0277X0.1064*%
%ADD23R,0.0867X0.1064*%
%ADD24C,0.0434*%
%ADD25R,0.0470X0.0200*%
%ADD26R,0.0474X0.0513*%
%ADD27C,0.0680*%
%ADD28R,0.1580X0.1580*%
%ADD29C,0.0440*%
%ADD30C,0.0480*%
D10*
X011991Y014484D03*
X011991Y014799D03*
X011991Y015114D03*
X011991Y015429D03*
X011991Y015744D03*
X011991Y016059D03*
X011991Y016374D03*
X011991Y016689D03*
X015371Y016689D03*
X015371Y016374D03*
X015371Y016059D03*
X015371Y015744D03*
X015371Y015429D03*
X015371Y015114D03*
X015371Y014799D03*
X015371Y014484D03*
D11*
X014784Y013896D03*
X014469Y013896D03*
X014154Y013896D03*
X013839Y013896D03*
X013524Y013896D03*
X013209Y013896D03*
X012894Y013896D03*
X012579Y013896D03*
X012579Y017276D03*
X012894Y017276D03*
X013209Y017276D03*
X013524Y017276D03*
X013839Y017276D03*
X014154Y017276D03*
X014469Y017276D03*
X014784Y017276D03*
D12*
X017681Y016536D03*
X017681Y014636D03*
X007181Y014536D03*
X007181Y012636D03*
D13*
X009347Y008086D03*
X010016Y008086D03*
X011347Y007086D03*
X012016Y007086D03*
X014847Y008586D03*
X015516Y008586D03*
X015516Y010586D03*
X014847Y010586D03*
X017347Y012586D03*
X018016Y012586D03*
X018016Y018586D03*
X017347Y018586D03*
D14*
X007681Y018086D03*
D15*
X006681Y018086D03*
X005681Y018086D03*
X005681Y017086D03*
X006681Y017086D03*
X007681Y017086D03*
D16*
X002055Y017086D03*
X001307Y017086D03*
X014807Y012086D03*
X015555Y012086D03*
X015555Y009586D03*
X014807Y009586D03*
D17*
X002181Y014086D03*
D18*
X002181Y015086D03*
D19*
X002095Y018586D03*
X001268Y018586D03*
X011768Y018586D03*
X012595Y018586D03*
D20*
X010181Y017960D03*
X010181Y017212D03*
X009181Y013960D03*
X009181Y013212D03*
X009681Y010460D03*
X009681Y009712D03*
X008181Y007460D03*
X008181Y006712D03*
D21*
X004121Y008423D03*
X004121Y008679D03*
X004121Y008935D03*
X004121Y009191D03*
X004121Y009447D03*
X004121Y009702D03*
X004121Y009958D03*
X004121Y010214D03*
X004121Y010470D03*
X004121Y010726D03*
X004121Y010982D03*
X004121Y011238D03*
X004121Y011494D03*
X004121Y011750D03*
X001242Y011750D03*
X001242Y011494D03*
X001242Y011238D03*
X001242Y010982D03*
X001242Y010726D03*
X001242Y010470D03*
X001242Y010214D03*
X001242Y009958D03*
X001242Y009702D03*
X001242Y009447D03*
X001242Y009191D03*
X001242Y008935D03*
X001242Y008679D03*
X001242Y008423D03*
D22*
X003051Y005571D03*
X003366Y005571D03*
X003681Y005571D03*
X003996Y005571D03*
X004311Y005571D03*
D23*
X001910Y003405D03*
X001910Y005571D03*
X005453Y005571D03*
X005453Y003405D03*
D24*
X004548Y004586D03*
X002815Y004586D03*
D25*
X011033Y009179D03*
X011033Y009435D03*
X011033Y009691D03*
X011033Y009947D03*
X011033Y010202D03*
X011033Y010458D03*
X011033Y010714D03*
X011033Y010970D03*
X011033Y011226D03*
X011033Y011482D03*
X011033Y011738D03*
X011033Y011994D03*
X013330Y011994D03*
X013330Y011738D03*
X013330Y011482D03*
X013330Y011226D03*
X013330Y010970D03*
X013330Y010714D03*
X013330Y010458D03*
X013330Y010202D03*
X013330Y009947D03*
X013330Y009691D03*
X013330Y009435D03*
X013330Y009179D03*
D26*
X008181Y009752D03*
X008181Y010421D03*
X005681Y012252D03*
X005681Y012921D03*
X005681Y014252D03*
X005681Y014921D03*
D27*
X007181Y005886D02*
X007181Y005286D01*
X007881Y003586D02*
X008481Y003586D01*
X009181Y005286D02*
X009181Y005886D01*
X010681Y005886D02*
X010681Y005286D01*
X011381Y003586D02*
X011981Y003586D01*
X012681Y005286D02*
X012681Y005886D01*
D28*
X014016Y007086D03*
X016181Y003543D03*
X018347Y007086D03*
D29*
X016681Y007086D03*
X014181Y009086D03*
X012181Y006586D03*
X006181Y004586D03*
X005681Y008086D03*
X001181Y007586D03*
X009181Y015086D03*
X011181Y015586D03*
X013681Y016086D03*
X016181Y017086D03*
X019181Y018086D03*
X015681Y013586D03*
X013681Y012586D03*
X003181Y017586D03*
D30*
X001701Y012086D03*
X001861Y010566D03*
X008921Y012106D03*
X011541Y011526D03*
X012581Y012886D03*
X014021Y013366D03*
X014501Y013366D03*
X014021Y014486D03*
X013861Y015126D03*
X012581Y015766D03*
X012821Y016726D03*
X012181Y017286D03*
X010901Y018006D03*
X011461Y014566D03*
X013861Y011206D03*
X013861Y010246D03*
M02*
