G75*
G70*
%OFA0B0*%
%FSLAX24Y24*%
%IPPOS*%
%LPD*%
%AMOC8*
5,1,8,0,0,1.08239X$1,22.5*
%
%ADD10C,0.0600*%
%ADD11C,0.0680*%
%ADD12OC8,0.0680*%
%ADD13OC8,0.0710*%
%ADD14C,0.0710*%
%ADD15C,0.0434*%
%ADD16C,0.0680*%
%ADD17R,0.1580X0.1580*%
%ADD18C,0.0440*%
%ADD19C,0.0480*%
D10*
X007181Y012636D03*
X007181Y014536D03*
X017681Y014636D03*
X017681Y016536D03*
D11*
X007681Y018086D03*
D12*
X006681Y018086D03*
X005681Y018086D03*
X005681Y017086D03*
X006681Y017086D03*
X007681Y017086D03*
D13*
X002181Y014086D03*
D14*
X002181Y015086D03*
D15*
X002815Y004586D03*
X004548Y004586D03*
D16*
X007181Y005286D02*
X007181Y005886D01*
X009181Y005886D02*
X009181Y005286D01*
X010681Y005286D02*
X010681Y005886D01*
X012681Y005886D02*
X012681Y005286D01*
X011981Y003586D02*
X011381Y003586D01*
X008481Y003586D02*
X007881Y003586D01*
D17*
X014016Y007086D03*
X016181Y003543D03*
X018347Y007086D03*
D18*
X016681Y007086D03*
X014181Y009086D03*
X012181Y006586D03*
X006181Y004586D03*
X005681Y008086D03*
X001181Y007586D03*
X009181Y015086D03*
X011181Y015586D03*
X013681Y016086D03*
X016181Y017086D03*
X019181Y018086D03*
X015681Y013586D03*
X013681Y012586D03*
X003181Y017586D03*
D19*
X001701Y012086D03*
X001861Y010566D03*
X008921Y012106D03*
X011541Y011526D03*
X012581Y012886D03*
X014021Y013366D03*
X014501Y013366D03*
X014021Y014486D03*
X013861Y015126D03*
X012581Y015766D03*
X012821Y016726D03*
X012181Y017286D03*
X010901Y018006D03*
X011461Y014566D03*
X013861Y011206D03*
X013861Y010246D03*
M02*
