%
M48
M72
T01C0.0200
T02C0.0240
T03C0.0320
T04C0.0354
T05C0.0400
T06C0.0787
%
T01
X6181Y4586
X5681Y8086
X1181Y7586
X9181Y15086
X11181Y15586
X13681Y16086
X16181Y17086
X19181Y18086
X15681Y13586
X13681Y12586
X14181Y9086
X12181Y6586
X16681Y7086
X3181Y17586
T02
X1701Y12086
X1861Y10566
X8921Y12106
X11541Y11526
X12581Y12886
X14021Y13366
X14501Y13366
X14021Y14486
X13861Y15126
X12581Y15766
X12821Y16726
X12181Y17286
X10901Y18006
X11461Y14566
X13861Y11206
X13861Y10246
T03
X17681Y14636
X17681Y16536
X7181Y14536
X7181Y12636
X2181Y14086
X2181Y15086
T04
X2815Y4586
X4548Y4586
T05
X7181Y5586
X9181Y5586
X10681Y5586
X12681Y5586
X11681Y3586
X8181Y3586
X7681Y17086
X6681Y17086
X5681Y17086
X5681Y18086
X6681Y18086
X7681Y18086
T06
X14016Y7086
X16181Y3543
X18347Y7086
M30
