G75*
G70*
%OFA0B0*%
%FSLAX24Y24*%
%IPPOS*%
%LPD*%
%AMOC8*
5,1,8,0,0,1.08239X$1,22.5*
%
%ADD10C,0.0520*%
%ADD11C,0.0600*%
%ADD12OC8,0.0600*%
%ADD13OC8,0.0630*%
%ADD14C,0.0630*%
%ADD15C,0.0600*%
%ADD16R,0.1500X0.1500*%
%ADD17C,0.0160*%
%ADD18C,0.0360*%
%ADD19C,0.0100*%
%ADD20C,0.0400*%
D10*
X007181Y012636D03*
X007181Y014536D03*
X017681Y014636D03*
X017681Y016536D03*
D11*
X007681Y018086D03*
D12*
X006681Y018086D03*
X005681Y018086D03*
X005681Y017086D03*
X006681Y017086D03*
X007681Y017086D03*
D13*
X002181Y014086D03*
D14*
X002181Y015086D03*
D15*
X007181Y005886D02*
X007181Y005286D01*
X007881Y003586D02*
X008481Y003586D01*
X009181Y005286D02*
X009181Y005886D01*
X010681Y005886D02*
X010681Y005286D01*
X011381Y003586D02*
X011981Y003586D01*
X012681Y005286D02*
X012681Y005886D01*
D16*
X014016Y007086D03*
X016181Y003543D03*
X018347Y007086D03*
D17*
X000661Y002566D02*
X000661Y019102D01*
X006421Y019102D01*
X005864Y018546D01*
X005491Y018546D01*
X005221Y018277D01*
X005221Y017896D01*
X005491Y017626D01*
X005872Y017626D01*
X006141Y017896D01*
X006141Y018229D01*
X006828Y018916D01*
X007194Y018916D01*
X006824Y018546D01*
X006491Y018546D01*
X006221Y018277D01*
X006221Y017896D01*
X006491Y017626D01*
X006872Y017626D01*
X007141Y017896D01*
X007141Y018269D01*
X007468Y018596D01*
X010014Y018596D01*
X010541Y018069D01*
X010541Y017935D01*
X010590Y017816D01*
X008268Y017816D01*
X008126Y017958D01*
X008141Y017995D01*
X008141Y018178D01*
X008071Y018347D01*
X007942Y018476D01*
X007773Y018546D01*
X007590Y018546D01*
X007421Y018476D01*
X007291Y018347D01*
X007221Y018178D01*
X007221Y017995D01*
X007291Y017826D01*
X007421Y017696D01*
X007590Y017626D01*
X007773Y017626D01*
X007838Y017653D01*
X008094Y017396D01*
X008268Y017396D01*
X011774Y017396D01*
X011821Y017349D01*
X011821Y017215D01*
X011876Y017082D01*
X011977Y016981D01*
X012110Y016926D01*
X012253Y016926D01*
X012385Y016981D01*
X012487Y017082D01*
X012541Y017215D01*
X012541Y017358D01*
X012491Y017480D01*
X012884Y017086D01*
X012750Y017086D01*
X012617Y017031D01*
X012516Y016930D01*
X012461Y016798D01*
X012461Y016663D01*
X012414Y016616D01*
X007388Y016616D01*
X007125Y016880D01*
X007141Y016896D01*
X007141Y017277D01*
X006872Y017546D01*
X006491Y017546D01*
X006221Y017277D01*
X006221Y016896D01*
X006491Y016626D01*
X006784Y016626D01*
X007034Y016376D01*
X005388Y016376D01*
X005214Y016376D01*
X001214Y012376D01*
X001091Y012253D01*
X001091Y010653D01*
X001091Y010479D01*
X001214Y010356D01*
X001562Y010356D01*
X001657Y010261D01*
X001790Y010206D01*
X001933Y010206D01*
X002065Y010261D01*
X002167Y010362D01*
X002221Y010495D01*
X002221Y010638D01*
X002167Y010770D01*
X002065Y010871D01*
X001933Y010926D01*
X001790Y010926D01*
X001657Y010871D01*
X001562Y010776D01*
X001511Y010776D01*
X001511Y011775D01*
X001630Y011726D01*
X001764Y011726D01*
X002494Y010996D01*
X002668Y010996D01*
X011228Y010996D01*
X011351Y011119D01*
X011351Y011215D01*
X011470Y011166D01*
X011604Y011166D01*
X013044Y009726D01*
X009518Y006200D01*
X009442Y006276D01*
X009273Y006346D01*
X009090Y006346D01*
X008921Y006276D01*
X008791Y006147D01*
X008721Y005978D01*
X008721Y005195D01*
X008791Y005026D01*
X008921Y004896D01*
X009090Y004826D01*
X009273Y004826D01*
X009442Y004896D01*
X009571Y005026D01*
X009641Y005195D01*
X009641Y005729D01*
X013468Y009556D01*
X013591Y009679D01*
X013798Y009886D01*
X013933Y009886D01*
X014065Y009941D01*
X014167Y010042D01*
X014221Y010175D01*
X014221Y010318D01*
X014167Y010450D01*
X014065Y010551D01*
X013933Y010606D01*
X013790Y010606D01*
X013657Y010551D01*
X013556Y010450D01*
X013501Y010318D01*
X013501Y010183D01*
X013341Y010023D01*
X011901Y011463D01*
X011901Y011598D01*
X011847Y011730D01*
X011745Y011831D01*
X011613Y011886D01*
X011470Y011886D01*
X011351Y011837D01*
X011351Y012079D01*
X011548Y012276D01*
X013068Y012276D01*
X013191Y012399D01*
X013191Y012573D01*
X013191Y013359D01*
X013958Y014126D01*
X014093Y014126D01*
X014211Y014175D01*
X014211Y013853D01*
X014084Y013726D01*
X013950Y013726D01*
X013817Y013671D01*
X013716Y013570D01*
X013661Y013438D01*
X013661Y013295D01*
X013716Y013162D01*
X013817Y013061D01*
X013950Y013006D01*
X014093Y013006D01*
X014225Y013061D01*
X014261Y013097D01*
X014291Y013067D01*
X014291Y011933D01*
X013924Y011566D01*
X013790Y011566D01*
X013657Y011511D01*
X013556Y011410D01*
X013501Y011278D01*
X013501Y011135D01*
X013556Y011002D01*
X013657Y010901D01*
X013790Y010846D01*
X013933Y010846D01*
X014065Y010901D01*
X014167Y011002D01*
X014221Y011135D01*
X014221Y011269D01*
X014588Y011636D01*
X014711Y011759D01*
X014711Y013067D01*
X014807Y013162D01*
X014861Y013295D01*
X014861Y013438D01*
X014807Y013570D01*
X014705Y013671D01*
X014631Y013702D01*
X014631Y013853D01*
X014631Y015933D01*
X014508Y016056D01*
X011948Y018616D01*
X011774Y018616D01*
X010988Y018616D01*
X010502Y019102D01*
X019571Y019102D01*
X019571Y002566D01*
X000661Y002566D01*
X000661Y002720D02*
X015278Y002720D01*
X015271Y002727D02*
X015365Y002633D01*
X016998Y002633D01*
X017091Y002727D01*
X017091Y004359D01*
X016998Y004453D01*
X015365Y004453D01*
X015271Y004359D01*
X015271Y002727D01*
X015271Y002879D02*
X000661Y002879D01*
X000661Y003038D02*
X015271Y003038D01*
X015271Y003196D02*
X012241Y003196D01*
X012242Y003196D02*
X012371Y003326D01*
X012441Y003495D01*
X012441Y003678D01*
X012371Y003847D01*
X012242Y003976D01*
X012073Y004046D01*
X011290Y004046D01*
X011121Y003976D01*
X010991Y003847D01*
X010921Y003678D01*
X010921Y003495D01*
X010991Y003326D01*
X011121Y003196D01*
X011290Y003126D01*
X012073Y003126D01*
X012242Y003196D01*
X012383Y003355D02*
X015271Y003355D01*
X015271Y003513D02*
X012441Y003513D01*
X012441Y003672D02*
X015271Y003672D01*
X015271Y003830D02*
X012378Y003830D01*
X012212Y003989D02*
X015271Y003989D01*
X015271Y004147D02*
X005038Y004147D01*
X005105Y004214D02*
X004920Y004029D01*
X004678Y003929D01*
X004417Y003929D01*
X004175Y004029D01*
X003990Y004214D01*
X003890Y004456D01*
X003890Y004717D01*
X003990Y004959D01*
X004175Y005143D01*
X004417Y005243D01*
X004678Y005243D01*
X004920Y005143D01*
X005105Y004959D01*
X005205Y004717D01*
X005205Y004456D01*
X005105Y004214D01*
X005143Y004306D02*
X015271Y004306D01*
X017091Y004306D02*
X019571Y004306D01*
X019571Y004464D02*
X005205Y004464D01*
X005205Y004623D02*
X019571Y004623D01*
X019571Y004782D02*
X005178Y004782D01*
X005112Y004940D02*
X006849Y004940D01*
X006869Y004920D02*
X006930Y004876D01*
X006997Y004841D01*
X007069Y004818D01*
X007144Y004806D01*
X007161Y004806D01*
X007161Y005566D01*
X006701Y005566D01*
X006701Y005249D01*
X006713Y005174D01*
X006737Y005102D01*
X006771Y005035D01*
X006815Y004974D01*
X006869Y004920D01*
X006738Y005099D02*
X004965Y005099D01*
X004131Y005099D02*
X003232Y005099D01*
X003188Y005143D02*
X002946Y005243D01*
X002685Y005243D01*
X002443Y005143D01*
X002258Y004959D01*
X002158Y004717D01*
X002158Y004456D01*
X002258Y004214D01*
X002443Y004029D01*
X002685Y003929D01*
X002946Y003929D01*
X003188Y004029D01*
X003372Y004214D01*
X003472Y004456D01*
X003472Y004717D01*
X003372Y004959D01*
X003188Y005143D01*
X003380Y004940D02*
X003983Y004940D01*
X003917Y004782D02*
X003446Y004782D01*
X003472Y004623D02*
X003890Y004623D01*
X003890Y004464D02*
X003472Y004464D01*
X003410Y004306D02*
X003952Y004306D01*
X004057Y004147D02*
X003306Y004147D01*
X003090Y003989D02*
X004273Y003989D01*
X004822Y003989D02*
X007651Y003989D01*
X007621Y003976D02*
X007491Y003847D01*
X007421Y003678D01*
X007421Y003495D01*
X007491Y003326D01*
X007621Y003196D01*
X007790Y003126D01*
X008573Y003126D01*
X008742Y003196D01*
X008871Y003326D01*
X008941Y003495D01*
X008941Y003678D01*
X008871Y003847D01*
X008742Y003976D01*
X008573Y004046D01*
X007790Y004046D01*
X007621Y003976D01*
X007485Y003830D02*
X000661Y003830D01*
X000661Y003672D02*
X007421Y003672D01*
X007421Y003513D02*
X000661Y003513D01*
X000661Y003355D02*
X007479Y003355D01*
X007621Y003196D02*
X000661Y003196D01*
X000661Y003989D02*
X002540Y003989D01*
X002325Y004147D02*
X000661Y004147D01*
X000661Y004306D02*
X002220Y004306D01*
X002158Y004464D02*
X000661Y004464D01*
X000661Y004623D02*
X002158Y004623D01*
X002185Y004782D02*
X000661Y004782D01*
X000661Y004940D02*
X002251Y004940D01*
X002398Y005099D02*
X000661Y005099D01*
X000661Y005257D02*
X006701Y005257D01*
X006701Y005416D02*
X000661Y005416D01*
X000661Y005574D02*
X007161Y005574D01*
X007161Y005566D02*
X007161Y005606D01*
X006701Y005606D01*
X006701Y005924D01*
X006713Y005999D01*
X006737Y006071D01*
X006771Y006138D01*
X006815Y006199D01*
X006869Y006252D01*
X006930Y006297D01*
X006997Y006331D01*
X007069Y006354D01*
X007144Y006366D01*
X007161Y006366D01*
X007161Y005607D01*
X007201Y005607D01*
X007201Y006366D01*
X007219Y006366D01*
X007294Y006354D01*
X007366Y006331D01*
X007433Y006297D01*
X007494Y006252D01*
X007548Y006199D01*
X007592Y006138D01*
X007626Y006071D01*
X007650Y005999D01*
X007661Y005924D01*
X007661Y005606D01*
X007202Y005606D01*
X007202Y005566D01*
X007661Y005566D01*
X007661Y005249D01*
X007650Y005174D01*
X007626Y005102D01*
X007592Y005035D01*
X007548Y004974D01*
X007494Y004920D01*
X007433Y004876D01*
X007366Y004841D01*
X007294Y004818D01*
X007219Y004806D01*
X007201Y004806D01*
X007201Y005566D01*
X007161Y005566D01*
X007202Y005574D02*
X008721Y005574D01*
X008721Y005416D02*
X007661Y005416D01*
X007661Y005257D02*
X008721Y005257D01*
X008761Y005099D02*
X007624Y005099D01*
X007514Y004940D02*
X008877Y004940D01*
X009486Y004940D02*
X010377Y004940D01*
X010421Y004896D02*
X010291Y005026D01*
X010221Y005195D01*
X010221Y005978D01*
X010291Y006147D01*
X010421Y006276D01*
X010590Y006346D01*
X010773Y006346D01*
X010942Y006276D01*
X011071Y006147D01*
X011141Y005978D01*
X011141Y005195D01*
X011071Y005026D01*
X010942Y004896D01*
X010773Y004826D01*
X010590Y004826D01*
X010421Y004896D01*
X010261Y005099D02*
X009602Y005099D01*
X009641Y005257D02*
X010221Y005257D01*
X010221Y005416D02*
X009641Y005416D01*
X009641Y005574D02*
X010221Y005574D01*
X010221Y005733D02*
X009645Y005733D01*
X009803Y005891D02*
X010221Y005891D01*
X010251Y006050D02*
X009962Y006050D01*
X010120Y006208D02*
X010353Y006208D01*
X010279Y006367D02*
X013086Y006367D01*
X013086Y006313D02*
X013098Y006267D01*
X013122Y006226D01*
X013156Y006192D01*
X013197Y006169D01*
X013242Y006156D01*
X013936Y006156D01*
X013936Y007006D01*
X014096Y007006D01*
X014096Y006156D01*
X014790Y006156D01*
X014836Y006169D01*
X014877Y006192D01*
X014910Y006226D01*
X014934Y006267D01*
X014946Y006313D01*
X014946Y007006D01*
X014096Y007006D01*
X014096Y007166D01*
X014946Y007166D01*
X014946Y007860D01*
X014934Y007906D01*
X014910Y007947D01*
X014877Y007980D01*
X014836Y008004D01*
X014790Y008016D01*
X014096Y008016D01*
X014096Y007166D01*
X013936Y007166D01*
X013936Y007006D01*
X013086Y007006D01*
X013086Y006313D01*
X013139Y006208D02*
X013010Y006208D01*
X013071Y006147D02*
X012942Y006276D01*
X012773Y006346D01*
X012590Y006346D01*
X012421Y006276D01*
X012291Y006147D01*
X012221Y005978D01*
X012221Y005195D01*
X012291Y005026D01*
X012421Y004896D01*
X012590Y004826D01*
X012773Y004826D01*
X012942Y004896D01*
X013071Y005026D01*
X013141Y005195D01*
X013141Y005978D01*
X013071Y006147D01*
X013112Y006050D02*
X019571Y006050D01*
X019571Y006208D02*
X019195Y006208D01*
X019163Y006176D02*
X019257Y006270D01*
X019257Y007903D01*
X019163Y007996D01*
X017530Y007996D01*
X017437Y007903D01*
X017437Y006270D01*
X017530Y006176D01*
X019163Y006176D01*
X019257Y006367D02*
X019571Y006367D01*
X019571Y006526D02*
X019257Y006526D01*
X019257Y006684D02*
X019571Y006684D01*
X019571Y006843D02*
X019257Y006843D01*
X019257Y007001D02*
X019571Y007001D01*
X019571Y007160D02*
X019257Y007160D01*
X019257Y007318D02*
X019571Y007318D01*
X019571Y007477D02*
X019257Y007477D01*
X019257Y007635D02*
X019571Y007635D01*
X019571Y007794D02*
X019257Y007794D01*
X019207Y007952D02*
X019571Y007952D01*
X019571Y008111D02*
X012023Y008111D01*
X012182Y008269D02*
X019571Y008269D01*
X019571Y008428D02*
X012340Y008428D01*
X012499Y008587D02*
X019571Y008587D01*
X019571Y008745D02*
X012657Y008745D01*
X012816Y008904D02*
X019571Y008904D01*
X019571Y009062D02*
X012974Y009062D01*
X013133Y009221D02*
X019571Y009221D01*
X019571Y009379D02*
X013291Y009379D01*
X013450Y009538D02*
X019571Y009538D01*
X019571Y009696D02*
X013608Y009696D01*
X013591Y009679D02*
X013591Y009679D01*
X013767Y009855D02*
X019571Y009855D01*
X019571Y010013D02*
X014138Y010013D01*
X014220Y010172D02*
X019571Y010172D01*
X019571Y010331D02*
X014216Y010331D01*
X014128Y010489D02*
X019571Y010489D01*
X019571Y010648D02*
X012717Y010648D01*
X012558Y010806D02*
X019571Y010806D01*
X019571Y010965D02*
X014129Y010965D01*
X014217Y011123D02*
X019571Y011123D01*
X019571Y011282D02*
X014234Y011282D01*
X014392Y011440D02*
X019571Y011440D01*
X019571Y011599D02*
X014551Y011599D01*
X014710Y011757D02*
X019571Y011757D01*
X019571Y011916D02*
X014711Y011916D01*
X014711Y012075D02*
X019571Y012075D01*
X019571Y012233D02*
X014711Y012233D01*
X014711Y012392D02*
X019571Y012392D01*
X019571Y012550D02*
X014711Y012550D01*
X014711Y012709D02*
X019571Y012709D01*
X019571Y012867D02*
X014711Y012867D01*
X014711Y013026D02*
X019571Y013026D01*
X019571Y013184D02*
X014816Y013184D01*
X014861Y013343D02*
X019571Y013343D01*
X019571Y013501D02*
X014835Y013501D01*
X014717Y013660D02*
X019571Y013660D01*
X019571Y013819D02*
X014631Y013819D01*
X014631Y013977D02*
X019571Y013977D01*
X019571Y014136D02*
X014631Y014136D01*
X014631Y014294D02*
X017430Y014294D01*
X017444Y014280D02*
X017598Y014216D01*
X017765Y014216D01*
X017919Y014280D01*
X018037Y014398D01*
X018101Y014553D01*
X018101Y014720D01*
X018037Y014874D01*
X017919Y014992D01*
X017765Y015056D01*
X017598Y015056D01*
X017444Y014992D01*
X017325Y014874D01*
X017261Y014720D01*
X017261Y014553D01*
X017325Y014398D01*
X017444Y014280D01*
X017303Y014453D02*
X014631Y014453D01*
X014631Y014611D02*
X017261Y014611D01*
X017282Y014770D02*
X014631Y014770D01*
X014631Y014928D02*
X017379Y014928D01*
X017983Y014928D02*
X019571Y014928D01*
X019571Y014770D02*
X018081Y014770D01*
X018101Y014611D02*
X019571Y014611D01*
X019571Y014453D02*
X018060Y014453D01*
X017933Y014294D02*
X019571Y014294D01*
X019571Y015087D02*
X014631Y015087D01*
X014631Y015245D02*
X019571Y015245D01*
X019571Y015404D02*
X014631Y015404D01*
X014631Y015562D02*
X019571Y015562D01*
X019571Y015721D02*
X014631Y015721D01*
X014631Y015880D02*
X019571Y015880D01*
X019571Y016038D02*
X014527Y016038D01*
X014368Y016197D02*
X017427Y016197D01*
X017444Y016180D02*
X017598Y016116D01*
X017765Y016116D01*
X017919Y016180D01*
X018037Y016298D01*
X018101Y016453D01*
X018101Y016620D01*
X018037Y016774D01*
X017919Y016892D01*
X017765Y016956D01*
X017598Y016956D01*
X017444Y016892D01*
X017325Y016774D01*
X017261Y016620D01*
X017261Y016453D01*
X017325Y016298D01*
X017444Y016180D01*
X017302Y016355D02*
X014209Y016355D01*
X014051Y016514D02*
X017261Y016514D01*
X017283Y016672D02*
X013892Y016672D01*
X013734Y016831D02*
X017382Y016831D01*
X017981Y016831D02*
X019571Y016831D01*
X019571Y016989D02*
X013575Y016989D01*
X013417Y017148D02*
X019571Y017148D01*
X019571Y017306D02*
X013258Y017306D01*
X013100Y017465D02*
X019571Y017465D01*
X019571Y017624D02*
X012941Y017624D01*
X012783Y017782D02*
X019571Y017782D01*
X019571Y017941D02*
X012624Y017941D01*
X012465Y018099D02*
X019571Y018099D01*
X019571Y018258D02*
X012307Y018258D01*
X012148Y018416D02*
X019571Y018416D01*
X019571Y018575D02*
X011990Y018575D01*
X010871Y018733D02*
X019571Y018733D01*
X019571Y018892D02*
X010713Y018892D01*
X010554Y019050D02*
X019571Y019050D01*
X019571Y016672D02*
X018080Y016672D01*
X018101Y016514D02*
X019571Y016514D01*
X019571Y016355D02*
X018061Y016355D01*
X017936Y016197D02*
X019571Y016197D01*
X014291Y013026D02*
X014140Y013026D01*
X014291Y012867D02*
X013191Y012867D01*
X013191Y012709D02*
X014291Y012709D01*
X014291Y012550D02*
X013191Y012550D01*
X013184Y012392D02*
X014291Y012392D01*
X014291Y012233D02*
X011505Y012233D01*
X011351Y012075D02*
X014291Y012075D01*
X014274Y011916D02*
X011351Y011916D01*
X010931Y011876D02*
X010931Y011416D01*
X002668Y011416D01*
X002061Y012023D01*
X002061Y012158D01*
X002007Y012290D01*
X001905Y012391D01*
X001847Y012415D01*
X005388Y015956D01*
X012270Y015956D01*
X012221Y015838D01*
X012221Y015695D01*
X012276Y015562D01*
X012371Y015467D01*
X012371Y013185D01*
X012276Y013090D01*
X012221Y012958D01*
X012221Y012815D01*
X012270Y012696D01*
X011548Y012696D01*
X011374Y012696D01*
X011111Y012433D01*
X011111Y014356D01*
X011162Y014356D01*
X011257Y014261D01*
X011390Y014206D01*
X011533Y014206D01*
X011665Y014261D01*
X011767Y014362D01*
X011821Y014495D01*
X011821Y014638D01*
X011767Y014770D01*
X012371Y014770D01*
X012371Y014928D02*
X007332Y014928D01*
X007265Y014956D02*
X007419Y014892D01*
X007537Y014774D01*
X007601Y014620D01*
X007601Y014453D01*
X010691Y014453D01*
X010691Y014479D02*
X010691Y012298D01*
X009224Y012313D01*
X009125Y012411D01*
X008993Y012466D01*
X008850Y012466D01*
X008717Y012411D01*
X008616Y012310D01*
X008561Y012178D01*
X008561Y012035D01*
X008616Y011902D01*
X008717Y011801D01*
X008850Y011746D01*
X008993Y011746D01*
X009125Y011801D01*
X009218Y011893D01*
X010814Y011877D01*
X010814Y011876D01*
X010901Y011876D01*
X010931Y011876D01*
X010931Y011757D02*
X009020Y011757D01*
X008823Y011757D02*
X002327Y011757D01*
X002486Y011599D02*
X010931Y011599D01*
X010931Y011440D02*
X002644Y011440D01*
X002367Y011123D02*
X001511Y011123D01*
X001511Y010965D02*
X011806Y010965D01*
X011647Y011123D02*
X011351Y011123D01*
X011924Y011440D02*
X013586Y011440D01*
X013503Y011282D02*
X012083Y011282D01*
X012241Y011123D02*
X013506Y011123D01*
X013594Y010965D02*
X012400Y010965D01*
X012123Y010648D02*
X002217Y010648D01*
X002219Y010489D02*
X012282Y010489D01*
X012440Y010331D02*
X002135Y010331D01*
X002131Y010806D02*
X011965Y010806D01*
X012599Y010172D02*
X000661Y010172D01*
X000661Y010013D02*
X012757Y010013D01*
X012916Y009855D02*
X000661Y009855D01*
X000661Y009696D02*
X013015Y009696D01*
X012856Y009538D02*
X000661Y009538D01*
X000661Y009379D02*
X012697Y009379D01*
X012539Y009221D02*
X000661Y009221D01*
X000661Y009062D02*
X012380Y009062D01*
X012222Y008904D02*
X000661Y008904D01*
X000661Y008745D02*
X012063Y008745D01*
X011905Y008587D02*
X000661Y008587D01*
X000661Y008428D02*
X011746Y008428D01*
X011588Y008269D02*
X000661Y008269D01*
X000661Y008111D02*
X011429Y008111D01*
X011271Y007952D02*
X000661Y007952D01*
X000661Y007794D02*
X011112Y007794D01*
X010954Y007635D02*
X000661Y007635D01*
X000661Y007477D02*
X010795Y007477D01*
X010636Y007318D02*
X000661Y007318D01*
X000661Y007160D02*
X010478Y007160D01*
X010319Y007001D02*
X000661Y007001D01*
X000661Y006843D02*
X010161Y006843D01*
X010002Y006684D02*
X000661Y006684D01*
X000661Y006526D02*
X009844Y006526D01*
X009685Y006367D02*
X000661Y006367D01*
X000661Y006208D02*
X006825Y006208D01*
X006730Y006050D02*
X000661Y006050D01*
X000661Y005891D02*
X006701Y005891D01*
X006701Y005733D02*
X000661Y005733D01*
X000661Y010331D02*
X001588Y010331D01*
X001592Y010806D02*
X001511Y010806D01*
X001091Y010806D02*
X000661Y010806D01*
X000661Y010648D02*
X001091Y010648D01*
X001091Y010489D02*
X000661Y010489D01*
X000661Y010965D02*
X001091Y010965D01*
X001091Y011123D02*
X000661Y011123D01*
X000661Y011282D02*
X001091Y011282D01*
X001091Y011440D02*
X000661Y011440D01*
X000661Y011599D02*
X001091Y011599D01*
X001091Y011757D02*
X000661Y011757D01*
X000661Y011916D02*
X001091Y011916D01*
X001091Y012075D02*
X000661Y012075D01*
X000661Y012233D02*
X001091Y012233D01*
X001230Y012392D02*
X000661Y012392D01*
X000661Y012550D02*
X001388Y012550D01*
X001547Y012709D02*
X000661Y012709D01*
X000661Y012867D02*
X001705Y012867D01*
X001864Y013026D02*
X000661Y013026D01*
X000661Y013184D02*
X002022Y013184D01*
X002181Y013343D02*
X000661Y013343D01*
X000661Y013501D02*
X002340Y013501D01*
X002386Y013591D02*
X002676Y013881D01*
X002676Y014086D01*
X002182Y014086D01*
X002182Y014086D01*
X002182Y013591D01*
X002386Y013591D01*
X002455Y013660D02*
X002498Y013660D01*
X002614Y013819D02*
X002657Y013819D01*
X002676Y013977D02*
X002815Y013977D01*
X002676Y014086D02*
X002676Y014291D01*
X002386Y014581D01*
X002182Y014581D01*
X002182Y014087D01*
X002181Y014087D01*
X002181Y014581D01*
X001976Y014581D01*
X001686Y014291D01*
X001686Y014086D01*
X001686Y013881D01*
X001976Y013591D01*
X002181Y013591D01*
X002181Y014086D01*
X001686Y014086D01*
X002181Y014086D01*
X002181Y014086D01*
X002182Y014086D01*
X002676Y014086D01*
X002676Y014136D02*
X002974Y014136D01*
X003132Y014294D02*
X002674Y014294D01*
X002515Y014453D02*
X003291Y014453D01*
X003449Y014611D02*
X000661Y014611D01*
X000661Y014453D02*
X001848Y014453D01*
X001689Y014294D02*
X000661Y014294D01*
X000661Y014136D02*
X001686Y014136D01*
X001686Y013977D02*
X000661Y013977D01*
X000661Y013819D02*
X001749Y013819D01*
X001908Y013660D02*
X000661Y013660D01*
X000661Y014770D02*
X001826Y014770D01*
X001779Y014817D02*
X001912Y014684D01*
X002087Y014611D01*
X002276Y014611D01*
X002450Y014684D01*
X002584Y014817D01*
X002656Y014992D01*
X002656Y015181D01*
X002584Y015355D01*
X002450Y015489D01*
X002276Y015561D01*
X002087Y015561D01*
X001912Y015489D01*
X001779Y015355D01*
X001706Y015181D01*
X001706Y014992D01*
X001779Y014817D01*
X001733Y014928D02*
X000661Y014928D01*
X000661Y015087D02*
X001706Y015087D01*
X001733Y015245D02*
X000661Y015245D01*
X000661Y015404D02*
X001827Y015404D01*
X002535Y015404D02*
X004242Y015404D01*
X004084Y015245D02*
X002630Y015245D01*
X002656Y015087D02*
X003925Y015087D01*
X003766Y014928D02*
X002630Y014928D01*
X002537Y014770D02*
X003608Y014770D01*
X003885Y014453D02*
X006761Y014453D01*
X006825Y014298D01*
X006944Y014180D01*
X007098Y014116D01*
X007265Y014116D01*
X007419Y014180D01*
X007537Y014298D01*
X007601Y014453D01*
X007601Y014611D02*
X010691Y014611D01*
X010691Y014653D02*
X010691Y014479D01*
X010691Y014653D02*
X010814Y014776D01*
X011162Y014776D01*
X011257Y014871D01*
X011390Y014926D01*
X011533Y014926D01*
X011665Y014871D01*
X011767Y014770D01*
X011821Y014611D02*
X012371Y014611D01*
X012371Y014453D02*
X011804Y014453D01*
X011698Y014294D02*
X012371Y014294D01*
X012371Y014136D02*
X011111Y014136D01*
X011111Y014294D02*
X011224Y014294D01*
X011111Y013977D02*
X012371Y013977D01*
X012371Y013819D02*
X011111Y013819D01*
X011111Y013660D02*
X012371Y013660D01*
X012371Y013501D02*
X011111Y013501D01*
X011111Y013343D02*
X012371Y013343D01*
X012370Y013184D02*
X011111Y013184D01*
X011111Y013026D02*
X012250Y013026D01*
X012221Y012867D02*
X011111Y012867D01*
X011111Y012709D02*
X012265Y012709D01*
X013191Y013026D02*
X013903Y013026D01*
X013707Y013184D02*
X013191Y013184D01*
X013191Y013343D02*
X013661Y013343D01*
X013688Y013501D02*
X013333Y013501D01*
X013492Y013660D02*
X013806Y013660D01*
X013651Y013819D02*
X014177Y013819D01*
X014211Y013977D02*
X013809Y013977D01*
X014115Y014136D02*
X014211Y014136D01*
X014211Y015222D02*
X014167Y015330D01*
X014065Y015431D01*
X013933Y015486D01*
X013798Y015486D01*
X013031Y016253D01*
X012911Y016374D01*
X013025Y016421D01*
X013127Y016522D01*
X013181Y016655D01*
X013181Y016789D01*
X014211Y015759D01*
X014211Y015222D01*
X014211Y015245D02*
X014202Y015245D01*
X014211Y015404D02*
X014093Y015404D01*
X014211Y015562D02*
X013722Y015562D01*
X013564Y015721D02*
X014211Y015721D01*
X014091Y015880D02*
X013405Y015880D01*
X013247Y016038D02*
X013933Y016038D01*
X013774Y016197D02*
X013088Y016197D01*
X012929Y016355D02*
X013616Y016355D01*
X013457Y016514D02*
X013118Y016514D01*
X013181Y016672D02*
X013298Y016672D01*
X012823Y017148D02*
X012514Y017148D01*
X012541Y017306D02*
X012664Y017306D01*
X012506Y017465D02*
X012497Y017465D01*
X012575Y016989D02*
X012394Y016989D01*
X012475Y016831D02*
X008076Y016831D01*
X008141Y016896D02*
X007872Y016626D01*
X007491Y016626D01*
X007221Y016896D01*
X007221Y017277D01*
X007491Y017546D01*
X007872Y017546D01*
X008141Y017277D01*
X008141Y016896D01*
X008141Y016989D02*
X011969Y016989D01*
X011849Y017148D02*
X008141Y017148D01*
X008112Y017306D02*
X011821Y017306D01*
X012461Y016672D02*
X007918Y016672D01*
X007445Y016672D02*
X007332Y016672D01*
X007286Y016831D02*
X007174Y016831D01*
X007141Y016989D02*
X007221Y016989D01*
X007221Y017148D02*
X007141Y017148D01*
X007112Y017306D02*
X007251Y017306D01*
X007410Y017465D02*
X006953Y017465D01*
X007028Y017782D02*
X007335Y017782D01*
X007244Y017941D02*
X007141Y017941D01*
X007141Y018099D02*
X007221Y018099D01*
X007255Y018258D02*
X007141Y018258D01*
X007288Y018416D02*
X007361Y018416D01*
X007447Y018575D02*
X010036Y018575D01*
X010194Y018416D02*
X008002Y018416D01*
X008108Y018258D02*
X010353Y018258D01*
X010512Y018099D02*
X008141Y018099D01*
X008144Y017941D02*
X010541Y017941D01*
X012239Y015880D02*
X005312Y015880D01*
X005153Y015721D02*
X012221Y015721D01*
X012276Y015562D02*
X004995Y015562D01*
X004836Y015404D02*
X012371Y015404D01*
X012371Y015245D02*
X004677Y015245D01*
X004519Y015087D02*
X012371Y015087D01*
X010808Y014770D02*
X007539Y014770D01*
X007265Y014956D02*
X007098Y014956D01*
X006944Y014892D01*
X006825Y014774D01*
X006761Y014620D01*
X006761Y014453D01*
X006761Y014611D02*
X004043Y014611D01*
X004202Y014770D02*
X006824Y014770D01*
X007030Y014928D02*
X004360Y014928D01*
X004401Y015562D02*
X000661Y015562D01*
X000661Y015721D02*
X004559Y015721D01*
X004718Y015880D02*
X000661Y015880D01*
X000661Y016038D02*
X004876Y016038D01*
X005035Y016197D02*
X000661Y016197D01*
X000661Y016355D02*
X005193Y016355D01*
X005483Y016606D02*
X005661Y016606D01*
X005661Y017066D01*
X005201Y017066D01*
X005201Y016887D01*
X005483Y016606D01*
X005417Y016672D02*
X000661Y016672D01*
X000661Y016514D02*
X006897Y016514D01*
X006445Y016672D02*
X005946Y016672D01*
X005880Y016606D02*
X006161Y016887D01*
X006161Y017066D01*
X005702Y017066D01*
X005702Y017106D01*
X006161Y017106D01*
X006161Y017285D01*
X005880Y017566D01*
X005701Y017566D01*
X005701Y017107D01*
X005661Y017107D01*
X005661Y017566D01*
X005483Y017566D01*
X005201Y017285D01*
X005201Y017106D01*
X005661Y017106D01*
X005661Y017066D01*
X005701Y017066D01*
X005701Y016606D01*
X005880Y016606D01*
X005701Y016672D02*
X005661Y016672D01*
X005661Y016831D02*
X005701Y016831D01*
X005701Y016989D02*
X005661Y016989D01*
X005661Y017148D02*
X005701Y017148D01*
X005701Y017306D02*
X005661Y017306D01*
X005661Y017465D02*
X005701Y017465D01*
X005381Y017465D02*
X000661Y017465D01*
X000661Y017306D02*
X005223Y017306D01*
X005201Y017148D02*
X000661Y017148D01*
X000661Y016989D02*
X005201Y016989D01*
X005258Y016831D02*
X000661Y016831D01*
X000661Y017624D02*
X007867Y017624D01*
X007953Y017465D02*
X008026Y017465D01*
X006853Y018575D02*
X006487Y018575D01*
X006361Y018416D02*
X006328Y018416D01*
X006221Y018258D02*
X006170Y018258D01*
X006141Y018099D02*
X006221Y018099D01*
X006221Y017941D02*
X006141Y017941D01*
X006028Y017782D02*
X006335Y017782D01*
X006410Y017465D02*
X005981Y017465D01*
X006140Y017306D02*
X006251Y017306D01*
X006221Y017148D02*
X006161Y017148D01*
X006161Y016989D02*
X006221Y016989D01*
X006286Y016831D02*
X006105Y016831D01*
X005335Y017782D02*
X000661Y017782D01*
X000661Y017941D02*
X005221Y017941D01*
X005221Y018099D02*
X000661Y018099D01*
X000661Y018258D02*
X005221Y018258D01*
X005361Y018416D02*
X000661Y018416D01*
X000661Y018575D02*
X005893Y018575D01*
X006052Y018733D02*
X000661Y018733D01*
X000661Y018892D02*
X006210Y018892D01*
X006369Y019050D02*
X000661Y019050D01*
X002181Y014453D02*
X002182Y014453D01*
X002181Y014294D02*
X002182Y014294D01*
X002181Y014136D02*
X002182Y014136D01*
X002181Y013977D02*
X002182Y013977D01*
X002181Y013819D02*
X002182Y013819D01*
X002181Y013660D02*
X002182Y013660D01*
X002616Y013184D02*
X010691Y013184D01*
X010691Y013026D02*
X007339Y013026D01*
X007265Y013056D02*
X007419Y012992D01*
X007537Y012874D01*
X007601Y012720D01*
X007601Y012553D01*
X007537Y012398D01*
X007419Y012280D01*
X007265Y012216D01*
X007098Y012216D01*
X006944Y012280D01*
X006825Y012398D01*
X006761Y012553D01*
X006761Y012720D01*
X006825Y012874D01*
X006944Y012992D01*
X007098Y013056D01*
X007265Y013056D01*
X007024Y013026D02*
X002458Y013026D01*
X002299Y012867D02*
X006823Y012867D01*
X006761Y012709D02*
X002141Y012709D01*
X001982Y012550D02*
X006762Y012550D01*
X006832Y012392D02*
X001905Y012392D01*
X002030Y012233D02*
X007057Y012233D01*
X007305Y012233D02*
X008584Y012233D01*
X008561Y012075D02*
X002061Y012075D01*
X002169Y011916D02*
X008611Y011916D01*
X008698Y012392D02*
X007531Y012392D01*
X007600Y012550D02*
X010691Y012550D01*
X010691Y012392D02*
X009145Y012392D01*
X007601Y012709D02*
X010691Y012709D01*
X010691Y012867D02*
X007540Y012867D01*
X007311Y014136D02*
X010691Y014136D01*
X010691Y014294D02*
X007533Y014294D01*
X007051Y014136D02*
X003568Y014136D01*
X003726Y014294D02*
X006830Y014294D01*
X003409Y013977D02*
X010691Y013977D01*
X010691Y013819D02*
X003251Y013819D01*
X003092Y013660D02*
X010691Y013660D01*
X010691Y013501D02*
X002933Y013501D01*
X002775Y013343D02*
X010691Y013343D01*
X011111Y012550D02*
X011228Y012550D01*
X011819Y011757D02*
X014116Y011757D01*
X013957Y011599D02*
X011901Y011599D01*
X012876Y010489D02*
X013595Y010489D01*
X013507Y010331D02*
X013034Y010331D01*
X013193Y010172D02*
X013490Y010172D01*
X013242Y008016D02*
X013197Y008004D01*
X013156Y007980D01*
X013122Y007947D01*
X013098Y007906D01*
X013086Y007860D01*
X013086Y007166D01*
X013936Y007166D01*
X013936Y008016D01*
X013242Y008016D01*
X013128Y007952D02*
X011864Y007952D01*
X011706Y007794D02*
X013086Y007794D01*
X013086Y007635D02*
X011547Y007635D01*
X011389Y007477D02*
X013086Y007477D01*
X013086Y007318D02*
X011230Y007318D01*
X011072Y007160D02*
X013936Y007160D01*
X013936Y007318D02*
X014096Y007318D01*
X014096Y007160D02*
X017437Y007160D01*
X017437Y007318D02*
X014946Y007318D01*
X014946Y007477D02*
X017437Y007477D01*
X017437Y007635D02*
X014946Y007635D01*
X014946Y007794D02*
X017437Y007794D01*
X017487Y007952D02*
X014904Y007952D01*
X014096Y007952D02*
X013936Y007952D01*
X013936Y007794D02*
X014096Y007794D01*
X014096Y007635D02*
X013936Y007635D01*
X013936Y007477D02*
X014096Y007477D01*
X014096Y007001D02*
X013936Y007001D01*
X013936Y006843D02*
X014096Y006843D01*
X014096Y006684D02*
X013936Y006684D01*
X013936Y006526D02*
X014096Y006526D01*
X014096Y006367D02*
X013936Y006367D01*
X013936Y006208D02*
X014096Y006208D01*
X014893Y006208D02*
X017498Y006208D01*
X017437Y006367D02*
X014946Y006367D01*
X014946Y006526D02*
X017437Y006526D01*
X017437Y006684D02*
X014946Y006684D01*
X014946Y006843D02*
X017437Y006843D01*
X017437Y007001D02*
X014946Y007001D01*
X013086Y007001D02*
X010913Y007001D01*
X010755Y006843D02*
X013086Y006843D01*
X013086Y006684D02*
X010596Y006684D01*
X010438Y006526D02*
X013086Y006526D01*
X013141Y005891D02*
X019571Y005891D01*
X019571Y005733D02*
X013141Y005733D01*
X013141Y005574D02*
X019571Y005574D01*
X019571Y005416D02*
X013141Y005416D01*
X013141Y005257D02*
X019571Y005257D01*
X019571Y005099D02*
X013102Y005099D01*
X012986Y004940D02*
X019571Y004940D01*
X019571Y004147D02*
X017091Y004147D01*
X017091Y003989D02*
X019571Y003989D01*
X019571Y003830D02*
X017091Y003830D01*
X017091Y003672D02*
X019571Y003672D01*
X019571Y003513D02*
X017091Y003513D01*
X017091Y003355D02*
X019571Y003355D01*
X019571Y003196D02*
X017091Y003196D01*
X017091Y003038D02*
X019571Y003038D01*
X019571Y002879D02*
X017091Y002879D01*
X017085Y002720D02*
X019571Y002720D01*
X012377Y004940D02*
X010986Y004940D01*
X011102Y005099D02*
X012261Y005099D01*
X012221Y005257D02*
X011141Y005257D01*
X011141Y005416D02*
X012221Y005416D01*
X012221Y005574D02*
X011141Y005574D01*
X011141Y005733D02*
X012221Y005733D01*
X012221Y005891D02*
X011141Y005891D01*
X011112Y006050D02*
X012251Y006050D01*
X012353Y006208D02*
X011010Y006208D01*
X009527Y006208D02*
X009510Y006208D01*
X008853Y006208D02*
X007538Y006208D01*
X007633Y006050D02*
X008751Y006050D01*
X008721Y005891D02*
X007661Y005891D01*
X007661Y005733D02*
X008721Y005733D01*
X007201Y005733D02*
X007161Y005733D01*
X007161Y005891D02*
X007201Y005891D01*
X007201Y006050D02*
X007161Y006050D01*
X007161Y006208D02*
X007201Y006208D01*
X007201Y005416D02*
X007161Y005416D01*
X007161Y005257D02*
X007201Y005257D01*
X007201Y005099D02*
X007161Y005099D01*
X007161Y004940D02*
X007201Y004940D01*
X008712Y003989D02*
X011151Y003989D01*
X010985Y003830D02*
X008878Y003830D01*
X008941Y003672D02*
X010921Y003672D01*
X010921Y003513D02*
X008941Y003513D01*
X008883Y003355D02*
X010979Y003355D01*
X011121Y003196D02*
X008741Y003196D01*
X002209Y011282D02*
X001511Y011282D01*
X001511Y011440D02*
X002050Y011440D01*
X001892Y011599D02*
X001511Y011599D01*
X001511Y011757D02*
X001555Y011757D01*
X006645Y018733D02*
X007012Y018733D01*
X007170Y018892D02*
X006804Y018892D01*
D18*
X003181Y017586D03*
X009181Y015086D03*
X011181Y015586D03*
X013681Y016086D03*
X016181Y017086D03*
X019181Y018086D03*
X015681Y013586D03*
X013681Y012586D03*
X014181Y009086D03*
X012181Y006586D03*
X016681Y007086D03*
X006181Y004586D03*
X005681Y008086D03*
X001181Y007586D03*
D19*
X001301Y010566D02*
X001861Y010566D01*
X001301Y010566D02*
X001301Y012166D01*
X005301Y016166D01*
X012821Y016166D01*
X013861Y015126D01*
X014021Y014486D02*
X012981Y013446D01*
X012981Y012486D01*
X011461Y012486D01*
X011141Y012166D01*
X011141Y011206D01*
X002581Y011206D01*
X001701Y012086D01*
X006661Y017046D02*
X006681Y017086D01*
X006661Y017046D02*
X007301Y016406D01*
X012501Y016406D01*
X012821Y016726D01*
X012181Y017286D02*
X011861Y017606D01*
X008181Y017606D01*
X007701Y018086D01*
X007681Y018086D01*
X007381Y018806D02*
X006661Y018086D01*
X006681Y018086D01*
X007381Y018806D02*
X010101Y018806D01*
X010901Y018006D01*
X010901Y018406D02*
X011861Y018406D01*
X014421Y015846D01*
X014421Y013766D01*
X014021Y013366D01*
X014501Y013366D02*
X014501Y011846D01*
X013861Y011206D01*
X013861Y010246D02*
X013381Y009766D01*
X013301Y009766D01*
X011541Y011526D01*
X010901Y012086D02*
X010901Y014566D01*
X011461Y014566D01*
X012581Y015766D02*
X012581Y012886D01*
X010901Y012086D02*
X008921Y012106D01*
X013381Y009766D02*
X009221Y005606D01*
X009181Y005586D01*
X005701Y018086D02*
X005681Y018086D01*
X005701Y018086D02*
X006741Y019126D01*
X010181Y019126D01*
X010901Y018406D01*
D20*
X010901Y018006D03*
X012181Y017286D03*
X012821Y016726D03*
X012581Y015766D03*
X011461Y014566D03*
X012581Y012886D03*
X014021Y013366D03*
X014501Y013366D03*
X014021Y014486D03*
X013861Y015126D03*
X011541Y011526D03*
X013861Y011206D03*
X013861Y010246D03*
X008921Y012106D03*
X001861Y010566D03*
X001701Y012086D03*
M02*
